<svg xmlns="http://www.w3.org/2000/svg" viewBox="0 0 453 453" fill="#FFFFFF"><path d="M438 434H19V16c0-9 0-15-9-15C2 1 0 7 0 15v423c0 8 7 15 15 15h423c8 0 14-2 14-10s-6-9-14-9z"/><path d="M57 406h79c5 0 10-4 10-10v-83c0-5-5-10-10-10H57c-6 0-10 5-10 10v83c0 6 4 10 10 10zm10-83h59v63H67v-63zm112 83h79c6 0 10-4 10-10V180c0-5-4-10-10-10h-79c-5 0-10 5-10 10v216c0 6 5 10 10 10zm10-216h59v196h-59V190zm116 216h79c6 0 10-4 10-10V49c0-5-4-10-10-10h-79c-5 0-10 5-10 10v347c0 6 5 10 10 10zm10-347h59v327h-59V59z"/></svg>
