<svg xmlns="http://www.w3.org/2000/svg" viewBox="0 0 373 373">
  <defs/>
  <path d="M372 263a107 107 0 00-52-93 81 81 0 00-56-139c-26 0-51 13-66 34a81 81 0 00-23 0A81 81 0 1053 170a109 109 0 00-53 93v45h78v34h216v-34h78v-45zM264 51a61 61 0 11-1 122v-1a80 80 0 002-9l1-3v-1a81 81 0 001-4 84 84 0 000-4v-2-3-1a83 83 0 000-3v-1a84 84 0 000-3v-1c-3-29-22-54-48-66 11-13 28-20 45-20zm-99 37h1a59 59 0 014-1 61 61 0 0116-3 61 61 0 0118 3 61 61 0 013 1c21 8 36 26 40 48v16a64 64 0 010 2l-1 1a60 60 0 010 5 61 61 0 01-1 2v1l-1 1v1l-1 2v2l-1 1a60 60 0 01-1 1v1a58 58 0 01-1 2v1a61 61 0 01-1 2h-1l-1 2-1 1v1a62 62 0 01-2 2l-1 2h-1l-1 2h-1a62 62 0 01-1 2l-1 1-1 1a60 60 0 01-2 2l-2 1a61 61 0 01-73 0h-1a60 60 0 01-1-1l-1-1a64 64 0 01-1-1l-1-1-1-1a62 62 0 01-2-2h-1l-1-2a64 64 0 01-2-2l-1-2-1-1-1-1a61 61 0 01-1-2 61 61 0 01-1-2l-1-1a62 62 0 01-1-2v-1a60 60 0 01-1-1v-1a62 62 0 01-1-2v-1a60 60 0 01-1-2v-1a59 59 0 01-1-2v-1a58 58 0 010-1l-1-2a60 60 0 010-2v-1a60 60 0 010-2v-1a61 61 0 01-1-2v-1a61 61 0 010-3v-3-3h1v-3c3-22 19-40 39-48zM47 112a61 61 0 01107-41 81 81 0 00-48 66v1a81 81 0 00-1 3v1a83 83 0 000 3v6a85 85 0 001 4 79 79 0 000 4l1 1v3a80 80 0 003 9v1h-2c-34 0-61-28-61-61zm48 127l-1 1-1 2-1 2a107 107 0 00-2 3 109 109 0 00-2 6l-1 1-1 3a106 106 0 00-2 4v1l-1 3v1a106 106 0 00-1 4 99 99 0 00-1 2 108 108 0 00-1 4v4l-1 1a107 107 0 000 4l-1 3H20v-25c0-34 20-65 51-80a81 81 0 0037 10l12-1a83 83 0 002 2v1a81 81 0 002 3l1 1a80 80 0 003 3 84 84 0 002 2h1l-3 2-3 2h-1l-2 2-1 1-3 2a105 105 0 00-3 3 111 111 0 00-2 2h-1a107 107 0 00-2 3h-1l-2 2v1l-2 2-1 1-2 2-1 1-1 2-1 1a112 112 0 00-2 3 107 107 0 00-2 3zm3 83v-25-4-1-2-1l1-2v-1-2-2l1-2v-1-2l1-1v-2-1l1-2v-1l1-2v-1l1-2 1-1v-2l1-1 1-2v-1l1-2 1-1v-1l1-2 1-1 1-2 1-1 1-1 1-1 1-2 1-1 1-1 1-2a92 92 0 011-1l1-1 1-1a85 85 0 014-5 94 94 0 011-1 87 87 0 013-2 87 87 0 011-1l1-1a102 102 0 013-2 88 88 0 014-2 85 85 0 013-2 89 89 0 014-3h2l1-1a81 81 0 0037 9 81 81 0 0038-9l1 1a99 99 0 013 1 89 89 0 013 2 84 84 0 013 2 84 84 0 012 1 82 82 0 013 2 82 82 0 012 2 94 94 0 013 2 81 81 0 012 2 88 88 0 019 10l1 1 1 1 1 2 1 1 1 1 1 1v2l1 1 1 2 1 1 1 1v2l1 1 1 2v1l1 2v1l1 2 1 1v2l1 1v3l1 2v1l1 2v5l1 2v36H98zm196-34a108 108 0 00-1-7v-1-3l-1-1v-3a112 112 0 00-1-5l-1-2-1-1v-3l-1-1a107 107 0 00-1-4l-2-3v-1l-1-2-1-2a108 108 0 00-2-3l-1-2v-2l-2-2v-1a109 109 0 00-3-3 113 113 0 00-2-3v-1l-2-2v-1l-3-2v-1a108 108 0 00-5-5 109 109 0 00-3-3 111 111 0 00-2-2l-1-1a108 108 0 00-2-2h-1a108 108 0 00-3-2v-1a108 108 0 00-6-4l-3-2h1l1-2a75 75 0 003-3l1-1a81 81 0 002-3l1-1a83 83 0 002-2l11 1a81 81 0 0038-10c31 15 50 46 50 80v25h-58z"/>
</svg>
