<svg xmlns="http://www.w3.org/2000/svg" viewBox="0 0 479 479">
  <defs/>
  <path d="M454 189l-33-6c-4-11-8-22-14-32l20-28c8-12 7-28-3-38l-30-30a29 29 0 00-38-3l-28 20c-11-6-22-11-34-14l-5-33a30 30 0 00-30-25h-42c-14 0-26 10-29 25l-6 34c-11 3-22 8-32 13l-28-19a29 29 0 00-38 3L54 86a30 30 0 00-3 38l20 28c-5 10-10 21-13 33l-33 5a30 30 0 00-25 29v42c0 15 10 27 25 30l34 5c3 12 8 23 13 33l-19 27c-9 12-7 28 3 38l30 30a29 29 0 0038 3l28-20c10 6 20 10 31 13l6 34a30 30 0 0029 25h42c15 0 27-11 30-25l5-34c12-3 22-8 33-13l28 20a29 29 0 0038-3l29-30c11-10 12-27 4-38l-20-28c5-11 10-22 13-33l34-5a30 30 0 0025-30v-42c0-14-11-26-25-29zm-2 71c0 2-1 3-2 3l-42 7c-6 1-10 5-11 10-4 15-10 29-18 42-2 4-2 10 1 15l25 34v4l-30 30h-4l-34-25c-5-3-10-3-15 0-13 7-27 13-42 17-5 1-9 6-10 11l-7 42c0 1-1 2-3 2h-42l-2-2-7-42c-1-6-5-10-10-11-14-4-28-9-41-17l-7-2c-3 0-5 1-8 3l-35 25h-1l-2-1-30-29v-4l24-34c3-5 4-10 1-15-8-13-14-27-18-42-1-5-5-9-10-10l-43-7c-1 0-2-1-2-3v-42l2-2 42-7c5-1 10-5 11-10 4-15 9-29 17-42 3-5 2-11-1-15l-25-35 1-3 29-30 2-1 2 1 34 24c5 3 11 4 15 1 13-8 27-14 42-18 5-1 9-5 10-11l7-42c0-1 1-2 3-2h42l2 2 7 42c1 5 5 9 10 11 15 4 30 9 43 17 5 3 11 3 15 0l34-25 2-1 2 1 30 30v3l-25 35c-3 4-3 10 0 15 7 13 13 27 17 42 1 5 6 9 11 10l42 7 2 2v42z"/><path d="M239 136a103 103 0 101 207 103 103 0 00-1-207zm0 180a76 76 0 111-153 76 76 0 01-1 153z"/>
</svg>
